<svg height="512pt" viewBox="0 0 512 512" width="512pt" xmlns="http://www.w3.org/2000/svg"><g fill-rule="evenodd"><path d="m124.988281 10h-5.496093c-9.167969 0-16.667969 7.5-16.667969 16.667969v16.667969h38.832031v-16.667969c0-9.167969-7.5-16.667969-16.667969-16.667969zm0 0" fill="#f13d7c"/><path d="m275.332031 10h-5.5c-9.167969 0-16.667969 7.5-16.667969 16.667969v16.667969h38.832032v-16.667969c0-9.167969-7.5-16.667969-16.664063-16.667969zm0 0" fill="#f13d7c"/><path d="m425.671875 10h-5.496094c-9.167969 0-16.667969 7.5-16.667969 16.667969v16.667969h38.832032v-16.667969c0-9.167969-7.5-16.667969-16.667969-16.667969zm0 0" fill="#f13d7c"/><path d="m442.722656 110.546875c-5.539062-19.351563-9.691406-41.351563-10.582031-67.210937h-12.9375c-.808594 23.457031-4.292969 43.746093-9.070313 61.757812 7.097657 2.667969 19.699219 4.378906 32.589844 5.453125zm0 0" fill="#e9bc82"/><path d="m290.722656 104.53125c-4.699218-17.871094-8.121094-37.980469-8.921875-61.195312h-12.9375c-.855469 24.792968-4.707031 46.039062-9.902343 64.804687 12.746093-.578125 24.789062-1.480469 31.761718-3.609375zm0 0" fill="#e9bc82"/><path d="m140.648438 105.539062c-4.835938-18.121093-8.375-38.550781-9.1875-62.203124h-12.9375c-.875 25.394531-4.890626 47.078124-10.28125 66.175781 13.488281-1.71875 26.332031-3.972657 32.40625-3.972657zm0 0" fill="#e9bc82"/><path d="m108.238281 109.523438c-14.539062 51.488281-39.085937 84.210937-39.085937 120.347656h111.675781c0-35.996094-24.355469-68.609375-38.914063-119.753906-13.210937 1.503906-26.324218 2.171874-33.675781-.59375zm0 0" fill="#ffbd50"/><path d="m258.414062 110.109375c-14.558593 51.152344-38.917968 83.761719-38.917968 119.761719h111.671875c0-36.398438-24.898438-69.34375-39.394531-121.484375-12.378907.480469-24.792969.789062-33.359376 1.722656zm0 0" fill="#ffbd50"/><path d="m408.519531 110.898438c-14.582031 50.695312-38.683593 83.160156-38.683593 118.972656h111.671874c0-35.496094-23.683593-67.699219-38.304687-117.636719-6.363281 0-20.328125-.296875-34.683594-1.335937zm0 0" fill="#ffbd50"/><path d="m370.332031 229.871094h111.175781v32.128906h-111.175781zm0 0" fill="#f13d7c"/><path d="m220.332031 229.871094h110.835938v32.128906h-110.835938zm0 0" fill="#f13d7c"/><path d="m70.664062 229.871094h110.164063v32.128906h-110.164063zm0 0" fill="#f13d7c"/><path d="m501.996094 362v-80c0-11-8.996094-20-19.996094-20h-344.667969c-11 0-20 9-20 20v80c0 11 9 20 20 20h344.667969c11 0 19.996094-9 19.996094-20zm0 0" fill="#c78f70"/><path d="m501.996094 482v-80c0-11-8.996094-20-19.996094-20h-343.335938c-11 0-20 9-20 20v80c0 10.964844 8.941407 19.941406 19.894532 20h343.546875c10.949219-.058594 19.890625-9.035156 19.890625-20zm0 0" fill="#876e67"/></g><path d="m512 282c0-13.21875-8.597656-24.457031-20.488281-28.445312v-23.683594c0-23.394532-8.984375-44.523438-19.386719-68.988282-6.59375-15.5-13.621094-32.035156-19.234375-51.105468-.066406-.25-.132813-.5-.214844-.742188-4.777343-16.382812-8.492187-34.644531-9.988281-55.71875 5.359375-.183594 9.652344-4.574218 9.652344-9.980468v-16.667969c0-14.703125-11.964844-26.667969-26.667969-26.667969h-38.664063c-14.707031 0-26.667968 11.964844-26.667968 26.667969v16.667969c0 5.40625 4.292968 9.800781 9.652344 9.984374-1.289063 18.171876-4.230469 34.257813-8.078126 48.847657-.074218.238281-.136718.476562-.191406.71875-5.875 22.023437-13.792968 40.65625-21.167968 57.996093-3.363282 7.914063-6.574219 15.476563-9.386719 22.882813-2.8125-7.40625-6.019531-14.96875-9.386719-22.882813-7.421875-17.453124-15.398438-36.214843-21.285156-58.433593-.058594-.277344-.125-.558594-.207032-.835938-.007812-.023437-.019531-.046875-.027343-.070312-3.765625-14.421875-6.644531-30.304688-7.917969-48.222657 5.359375-.183593 9.652344-4.578124 9.652344-9.984374v-16.667969c0-14.703125-11.960938-26.667969-26.667969-26.667969h-38.660156c-14.707031 0-26.667969 11.964844-26.667969 26.667969v16.667969c0 5.40625 4.292969 9.800781 9.652344 9.984374-1.4375 20.210938-4.914063 37.828126-9.40625 53.691407-.066406.203125-.125.40625-.179688.613281-5.707031 19.980469-13.015625 37.175781-19.851562 53.257812-3.367188 7.914063-6.574219 15.476563-9.386719 22.878907-2.8125-7.402344-6.023437-14.964844-9.386719-22.878907-7.320312-17.210937-15.175781-35.703124-21.035156-57.515624-.070312-.316407-.15625-.625-.253906-.929688-3.882813-14.660156-6.851563-30.832031-8.152344-49.117188 5.363281-.183593 9.65625-4.578124 9.65625-9.984374v-16.667969c0-14.703125-11.960938-26.667969-26.667969-26.667969h-38.660156c-14.707031 0-26.671875 11.964844-26.671875 26.667969v16.667969c0 5.40625 4.292969 9.800781 9.65625 9.984374-1.421875 20.019532-4.847656 37.5-9.28125 53.246094-.0625.195313-.121094.394532-.171875.59375-5.726563 20.179688-13.09375 37.515625-19.984375 53.722656-10.402344 24.464844-19.386719 45.59375-19.386719 68.988282v23.683594c-11.890625 3.988281-20.488281 15.230468-20.488281 28.445312v80c0 7.679688 2.902344 14.6875 7.664062 20-4.761718 5.3125-7.664062 12.324219-7.664062 20v80c0 16.542969 13.457031 30 30 30h452c16.542969 0 30-13.457031 30-30v-80c0-7.675781-2.902344-14.6875-7.664062-20 4.761718-5.3125 7.664062-12.320312 7.664062-20zm-170.832031-30v-12.128906h130.339843v12.128906zm-150.339844 0v-12.128906h130.339844v12.128906zm-150.339844 0v-12.128906h130.339844v12.128906zm349.550781-198.664062h32.601563c1.199219 17.921874 3.921875 34.027343 7.496094 48.664062-14.75-.464844-34.050781-1.683594-46.628907-4.066406 3.09375-13.542969 5.441407-28.320313 6.53125-44.597656zm-9.699218-26.667969c0-3.613281 3.054687-6.667969 6.667968-6.667969h38.664063c3.613281 0 6.667969 3.054688 6.667969 6.667969v6.667969h-52zm-1.957032 90.609375c17.964844 3.621094 44.605469 4.597656 57.414063 4.859375 5.578125 17.535156 12.066406 32.800781 17.921875 46.570312 7.902344 18.589844 14.898438 35.078125 17.078125 51.164063h-128.914063c2.179688-16.085938 9.175782-32.574219 17.078126-51.164063 6.390624-15.023437 13.53125-31.835937 19.421874-51.429687zm-106.082031-63.941406c1.054688 15.78125 3.292969 30.152343 6.25 43.355468-9.097656 1.101563-21.445312 1.550782-32.726562 1.960938-4.476563.160156-8.828125.320312-12.9375.515625 3.238281-13.875 5.6875-29.0625 6.8125-45.832031zm-42.300781-26.667969c0-3.613281 3.054688-6.667969 6.667969-6.667969h38.664062c3.613281 0 6.667969 3.054688 6.667969 6.667969v6.667969h-52zm-2.632812 92.832031c5.632812-.371094 12.269531-.613281 19.179687-.863281 13.171875-.476563 26.65625-.972657 37.074219-2.464844 5.957031 20.070313 13.246094 37.226563 19.753906 52.535156 7.90625 18.589844 14.902344 35.078125 17.082031 51.164063h-128.914062c2.179687-16.085938 9.175781-32.574219 17.078125-51.164063 6.144531-14.453125 12.992187-30.558593 18.746094-49.207031zm-138.007813-66.164062h32.597656c1.054688 15.769531 3.292969 30.128906 6.246094 43.324218-2.609375.34375-5.4375.746094-8.503906 1.183594-10.691407 1.527344-26.765625 3.820312-37.695313 3.574219 3.503906-14.484375 6.171875-30.398438 7.355469-48.082031zm-9.703125-26.667969c0-3.613281 3.054688-6.667969 6.671875-6.667969h38.660156c3.613281 0 6.667969 3.054688 6.667969 6.667969v6.667969h-52zm-3.132812 94.441406c2.339843.222656 4.832031.324219 7.46875.324219 10.699218 0 23.746093-1.679688 38.535156-3.789063 3.839844-.550781 7.570312-1.082031 10.753906-1.472656 5.957031 20.066406 13.246094 37.226563 19.753906 52.535156 7.90625 18.589844 14.902344 35.078125 17.082032 51.164063h-128.917969c2.179687-16.085938 9.175781-32.574219 17.082031-51.164063 5.964844-14.035156 12.589844-29.632812 18.242188-47.597656zm-46.523438 150.890625h452c5.511719 0 10 4.488281 10 10v80c0 5.515625-4.488281 10-10 10h-452c-5.515625 0-10-4.484375-10-10v-50h31.03125c5.523438 0 10-4.476562 10-10s-4.476562-10-10-10h-31.03125v-10c0-5.511719 4.484375-10 10-10zm452 220h-452c-5.515625 0-10-4.484375-10-10v-80c0-5.511719 4.484375-10 10-10h452c5.511719 0 10 4.488281 10 10v50h-31.035156c-5.523438 0-10 4.476562-10 10s4.476562 10 10 10h31.035156v10c0 5.515625-4.488281 10-10 10zm0 0"/><path d="m79.765625 312.003906h.234375c5.523438 0 10-4.476562 10-10 0-5.523437-4.476562-10-10-10h-.234375c-5.523437 0-10 4.476563-10 10 0 5.523438 4.476563 10 10 10zm0 0"/><path d="m136.636719 312h19c5.523437 0 10-4.476562 10-10 0-5.519531-4.476563-10-10-10h-19c-5.523438 0-10 4.480469-10 10 0 5.523438 4.476562 10 10 10zm0 0"/><path d="m240.636719 312h37.5c5.523437 0 10-4.476562 10-10 0-5.519531-4.476563-10-10-10h-37.5c-5.523438 0-10 4.480469-10 10 0 5.523438 4.476562 10 10 10zm0 0"/><path d="m388.136719 312h26.5c5.523437 0 10-4.476562 10-10 0-5.519531-4.476563-10-10-10h-26.5c-5.523438 0-10 4.480469-10 10 0 5.523438 4.476562 10 10 10zm0 0"/><path d="m417.636719 342c0 5.523438 4.476562 10 10 10h31c5.523437 0 10-4.476562 10-10s-4.476563-10-10-10h-31c-5.523438 0-10 4.476562-10 10zm0 0"/><path d="m323.386719 352h16.609375c5.523437 0 10-4.476562 10-10s-4.476563-10-10-10h-16.609375c-5.523438 0-10 4.476562-10 10s4.476562 10 10 10zm0 0"/><path d="m186.886719 352h19c5.523437 0 10-4.476562 10-10s-4.476563-10-10-10h-19c-5.523438 0-10 4.476562-10 10s4.476562 10 10 10zm0 0"/><path d="m79.636719 352h19c5.523437 0 10-4.476562 10-10s-4.476563-10-10-10h-19c-5.523438 0-10 4.476562-10 10s4.476562 10 10 10zm0 0"/><path d="m432.234375 452h-.238281c-5.523438 0-10 4.476562-10 10 0 5.519531 4.476562 10 10 10h.234375c5.523437 0 10-4.480469 10-10 .003906-5.523438-4.472657-10-9.996094-10zm0 0"/><path d="m375.359375 452h-19c-5.523437 0-10 4.476562-10 10s4.476563 10 10 10h19c5.523437 0 10-4.476562 10-10s-4.476563-10-10-10zm0 0"/><path d="m271.359375 452h-37.5c-5.523437 0-10 4.476562-10 10s4.476563 10 10 10h37.5c5.523437 0 10-4.476562 10-10s-4.476563-10-10-10zm0 0"/><path d="m123.859375 452h-26.5c-5.523437 0-10 4.476562-10 10s4.476563 10 10 10h26.5c5.523437 0 10-4.476562 10-10s-4.476563-10-10-10zm0 0"/><path d="m94.359375 422c0-5.523438-4.476563-10-10-10h-31c-5.523437 0-10 4.476562-10 10s4.476563 10 10 10h31c5.523437 0 10-4.476562 10-10zm0 0"/><path d="m188.609375 412h-16.609375c-5.523438 0-10 4.476562-10 10s4.476562 10 10 10h16.609375c5.523437 0 10-4.476562 10-10s-4.476563-10-10-10zm0 0"/><path d="m325.109375 412h-19c-5.523437 0-10 4.476562-10 10s4.476563 10 10 10h19c5.523437 0 10-4.476562 10-10s-4.476563-10-10-10zm0 0"/><path d="m432.359375 412h-19c-5.523437 0-10 4.476562-10 10s4.476563 10 10 10h19c5.523437 0 10-4.476562 10-10s-4.476563-10-10-10zm0 0"/></svg>